<?xml version="1.0" standalone="no"?>
<!DOCTYPE svg PUBLIC "-//W3C//DTD SVG 20010904//EN"
 "http://www.w3.org/TR/2001/REC-SVG-20010904/DTD/svg10.dtd">
<svg version="1.0" xmlns="http://www.w3.org/2000/svg"
 width="512.000000pt" height="512.000000pt" viewBox="0 0 512.000000 512.000000"
 preserveAspectRatio="xMidYMid meet">

<g transform="translate(0.000000,512.000000) scale(0.100000,-0.100000)"
fill="#000000" stroke="none">
<path d="M4258 5016 c-57 -15 -89 -36 -122 -78 -38 -50 -51 -116 -36 -180 12
-51 23 -63 298 -340 157 -158 301 -295 320 -304 89 -42 186 -22 251 53 54 60
68 125 45 203 -15 52 -32 71 -292 333 -321 322 -351 342 -464 313z"/>
<path d="M3890 4336 l-155 -155 -65 40 c-185 113 -414 103 -585 -26 -67 -51
-84 -75 -85 -125 0 -33 30 -65 518 -552 508 -508 518 -518 557 -518 34 0 45 7
89 53 157 163 178 423 50 631 l-37 58 157 157 156 156 -218 218 c-119 119
-219 217 -222 217 -3 0 -75 -69 -160 -154z"/>
<path d="M1654 2559 c-736 -660 -1352 -1213 -1367 -1229 -29 -27 -30 -32 -112
-586 -75 -501 -82 -562 -70 -591 16 -38 46 -56 94 -54 20 0 274 36 565 80 418
62 533 83 552 97 12 11 559 618 1215 1349 655 732 1201 1340 1212 1353 l21 23
-379 379 c-209 209 -382 380 -386 380 -3 0 -608 -540 -1345 -1201z m1621 716
c19 -18 25 -35 25 -67 l0 -43 -1193 -1192 c-1167 -1168 -1193 -1193 -1230
-1193 -54 0 -97 43 -97 97 0 37 25 63 1193 1230 l1192 1193 43 0 c32 0 49 -6
67 -25z"/>
</g>
</svg>
